<?xml version="1.0" encoding="UTF-8"?>
<svg version="1.1" xmlns="http://www.w3.org/2000/svg" width="48" height="48">
<path d="M0 0 C1.40572266 -0.01063477 1.40572266 -0.01063477 2.83984375 -0.02148438 C8.98204717 0.03514587 12.51326492 0.87744136 17.25 4.9375 C20.56562239 8.91624686 19.72224279 14.43417066 19.75 19.3125 C19.770625 20.21097656 19.79125 21.10945313 19.8125 22.03515625 C19.85115357 28.57727282 18.86415093 31.7778302 14.46875 36.72265625 C10.0450608 39.27791883 6.0163606 38.98195129 1 38.875 C-0.40572266 38.88563477 -0.40572266 38.88563477 -1.83984375 38.89648438 C-8.44570323 38.83557929 -11.79953668 37.83791184 -16.78515625 33.40625 C-19.34041883 28.9825608 -19.04445129 24.9538606 -18.9375 19.9375 C-18.94458984 19.00035156 -18.95167969 18.06320313 -18.95898438 17.09765625 C-18.89807929 10.49179677 -17.90041184 7.13796332 -13.46875 2.15234375 C-9.0450608 -0.40291883 -5.0163606 -0.10695129 0 0 Z " fill="#E8E9EE" transform="translate(23.5,4.5625)"/>
<path d="M0 0 C0.66 0.33 1.32 0.66 2 1 C1.34 2.134375 0.68 3.26875 0 4.4375 C-2.65089859 9.79589999 -3.02921271 14.62149741 -1.28125 20.359375 C-0.72988851 21.88072429 -0.17032555 23.39913288 0.3984375 24.9140625 C1.23658599 27.82036961 0.81041099 30.12672466 0 33 C1.0725 32.814375 2.145 32.62875 3.25 32.4375 C6.69263951 32.03585872 7.84732022 32.20170677 11 33 C17.66494769 33.40422109 23.69999912 33.29090941 30 31 C26.25 35.875 26.25 35.875 24 37 C20.56857616 37.26640863 17.12811283 37.23156403 13.6875 37.25 C12.73681641 37.270625 11.78613281 37.29125 10.80664062 37.3125 C4.08283031 37.35008944 0.79552622 36.4849122 -4.28515625 31.96875 C-6.84041883 27.5450608 -6.54445129 23.5163606 -6.4375 18.5 C-6.44458984 17.56285156 -6.45167969 16.62570313 -6.45898438 15.66015625 C-6.40198279 9.47767655 -5.6207316 5.81485987 -1.3125 1.1875 C-0.879375 0.795625 -0.44625 0.40375 0 0 Z " fill="#2D64FE" transform="translate(11,6)"/>
<path d="M0 0 C2.31 0 4.62 0 7 0 C7 2.31 7 4.62 7 7 C4.125 7.125 4.125 7.125 1 7 C0.34 6.34 -0.32 5.68 -1 5 C-0.625 2.375 -0.625 2.375 0 0 Z " fill="#94AEF5" transform="translate(22,20)"/>
<path d="M0 0 C2.64 0 5.28 0 8 0 C6.79618552 2.49361571 5.54571278 4.68143083 4 7 C5.32 7 6.64 7 8 7 C8 7.66 8 8.32 8 9 C5.36 9 2.72 9 0 9 C1.20381448 6.50638429 2.45428722 4.31856917 4 2 C2.68 2 1.36 2 0 2 C0 1.34 0 0.68 0 0 Z " fill="#5480FB" transform="translate(13,18)"/>
<path d="M0 0 C1.66611905 -0.042721 3.33382885 -0.04063832 5 0 C6 1 6 1 6.0625 3.5625 C6.041875 4.366875 6.02125 5.17125 6 6 C3.625 6.625 3.625 6.625 1 7 C0.34 6.34 -0.32 5.68 -1 5 C-0.625 2.375 -0.625 2.375 0 0 Z " fill="#7B9CF7" transform="translate(34,20)"/>
<path d="M0 0 C1.98 0 3.96 0 6 0 C6 2.31 6 4.62 6 7 C5.01 6.67 4.02 6.34 3 6 C3 4.68 3 3.36 3 2 C2.01 1.34 1.02 0.68 0 0 Z " fill="#4F7CFB" transform="translate(23,20)"/>
</svg>
