<?xml version="1.0" encoding="UTF-8"?>
<svg version="1.1" xmlns="http://www.w3.org/2000/svg" width="50" height="50">
<path d="M0 0 C3.10987687 3.21450824 5.25165339 6.89277305 7 11 C6.125 14.8125 6.125 14.8125 5 18 C6.63872821 20.53257996 7.85221281 22.02788933 10 24 C11.11375 25.2065625 11.11375 25.2065625 12.25 26.4375 C15.38737268 28.22009811 15.88147364 28.0241431 19.25 27.375 C23.53130487 26.61947561 25.48641891 27.51027016 29.0625 29.9375 C30.39243181 30.9355172 31.71147089 31.949072 33 33 C32.71860476 36.65813817 32.43656214 39.31896306 30.4375 42.4375 C26.95257667 44.67142521 23.95454614 44.67605293 20 44 C8.36921262 39.92922442 -3.47347479 27.6279342 -9.4375 17 C-11.35997235 12.72690644 -11.76279145 9.65302782 -11 5 C-8.17727695 1.12696139 -4.80413726 -0.83518078 0 0 Z M-6.1875 4.5625 C-8.29740414 6.92077034 -8.29740414 6.92077034 -8.125 10.1875 C-6.64178355 15.21395574 -4.12000642 18.83743615 -1 23 C-0.278125 23.99 0.44375 24.98 1.1875 26 C6.76979537 32.47038781 14.97662082 39.99610347 23.625 41.4375 C26.77965658 40.85637905 27.96988975 39.4060566 30 37 C28.95902262 34.2556051 28.02715813 33.0212861 25.6875 31.1875 C21.58695385 29.37563077 19.09491519 30.63502827 15 32 C9.47355945 28.41782958 5.12780522 23.0565614 1 18 C1.350625 17.278125 1.70125 16.55625 2.0625 15.8125 C3.14712665 12.55862005 3.12534904 11.21528297 2 8 C0.1687189 5.18900586 0.1687189 5.18900586 -2 3 C-4.17679328 2.80625394 -4.17679328 2.80625394 -6.1875 4.5625 Z " fill="#000000" transform="translate(14,3)"/>
</svg>
